<?xml version="1.0" encoding="utf-8"?>
<!-- Generator: Adobe Illustrator 19.0.1, SVG Export Plug-In . SVG Version: 6.00 Build 0)  -->
<svg version="1.1" id="Layer_1" xmlns="http://www.w3.org/2000/svg" xmlns:xlink="http://www.w3.org/1999/xlink" x="0px" y="0px"
	 viewBox="0 0 44 38" style="enable-background:new 0 0 44 38;" xml:space="preserve">
<style type="text/css">
	.st0{fill-rule:evenodd;clip-rule:evenodd;fill:#FFFFFF;}
</style>
<path class="st0" d="M40.9,0H3.1C1.4,0,0,1.4,0,3.2v31.7C0,36.6,1.4,38,3.1,38h37.7c1.7,0,3.1-1.4,3.1-3.2V3.2C44,1.4,42.6,0,40.9,0
	z M15,2.4c0.9,0,1.6,0.7,1.6,1.6c0,0.9-0.7,1.6-1.6,1.6c-0.9,0-1.6-0.7-1.6-1.6C13.5,3.1,14.2,2.4,15,2.4z M10.2,2.4
	c0.9,0,1.6,0.7,1.6,1.6c0,0.9-0.7,1.6-1.6,1.6C9.3,5.5,8.6,4.8,8.6,4C8.6,3.1,9.3,2.4,10.2,2.4z M5.5,2.4c0.9,0,1.6,0.7,1.6,1.6
	c0,0.9-0.7,1.6-1.6,1.6C4.6,5.5,3.9,4.8,3.9,4C3.9,3.1,4.6,2.4,5.5,2.4z M41,35H3V8h38V35z M41,5H19V3h22V5z"/>
</svg>
