<?xml version="1.0" encoding="utf-8"?>
<!-- Generator: Adobe Illustrator 19.0.1, SVG Export Plug-In . SVG Version: 6.00 Build 0)  -->
<svg version="1.1" id="Слой_1" xmlns="http://www.w3.org/2000/svg" xmlns:xlink="http://www.w3.org/1999/xlink" x="0px" y="0px"
	 viewBox="0 0 38 38" style="enable-background:new 0 0 38 38;" xml:space="preserve">
<style type="text/css">
	.st0{fill-rule:evenodd;clip-rule:evenodd;fill:#fff;}
</style>
<path class="st0" d="M31.8,35.2c0.4,0,0.7,0.3,0.7,0.7c0,0.4,0,2.1,0,2.1h-27c0,0,0-1.7,0-2.1c0-0.4,0.3-0.7,0.7-0.7h2.4
	c0.1-9.4,6.3-12.4,6.3-16.2c0-3.8-6.3-4.1-6.4-16.2H6.2c-0.4,0-0.7-0.3-0.7-0.7c0-0.4,0-2.1,0-2.1h27c0,0,0,1.7,0,2.1
	c0,0.4-0.3,0.7-0.7,0.7h-2.2c-0.1,12.1-6.4,12.4-6.4,16.2c0,3.8,6.2,6.8,6.3,16.2H31.8z M21.3,19c0-3.8,6.3-4.1,6.4-16.2H10.5
	c0.1,12.1,6.4,12.4,6.4,16.2c0,3.7-6.2,6.8-6.3,16.2h1.1c0.3-0.8,1.1-1.8,2.5-2.6l1.9-1c1.2-0.6,1.9-1,2.1-1.2
	c0.2-0.2,0.5-0.7,0.8-1.4c0.3,0.7,0.6,1.2,0.8,1.4c0.2,0.2,0.9,0.6,2.1,1.2l1.9,1c1.4,0.7,2.3,1.7,2.5,2.6h1.3
	C27.5,25.8,21.3,22.7,21.3,19z M19.8,16.9c-0.2,0.3-0.3,1-0.4,1.9c0,0.3-0.1,0.7-0.2,1.3c-0.1-0.6-0.2-1-0.2-1.3
	c-0.1-0.9-0.3-1.6-0.4-1.9c-0.2-0.3-0.7-0.9-1.5-1.8l-1.8-1.9c-1.2-1.3-2-2.2-2.3-2.8c2.1,1.3,4.2,2,6.2,2c2,0,4.1-0.7,6.2-2
	C25,11,24.2,11.9,23,13.2l-1.8,1.9C20.5,16,20,16.6,19.8,16.9z"/>
</svg>
