<?xml version="1.0" encoding="utf-8"?>
<!-- Generator: Adobe Illustrator 19.0.1, SVG Export Plug-In . SVG Version: 6.00 Build 0)  -->
<svg version="1.1" id="Layer_1" xmlns="http://www.w3.org/2000/svg" xmlns:xlink="http://www.w3.org/1999/xlink" x="0px" y="0px"
	 viewBox="0 0 27 39" style="enable-background:new 0 0 27 39;" xml:space="preserve">
<style type="text/css">
	.st0{fill-rule:evenodd;clip-rule:evenodd;fill:#FFFFFF;}
</style>
<path class="st0" d="M21.7,36.2c0,0,0.4-2.2-1.9-5c2.2-6.3,2.6-12,2.6-12s4.6,1.1,4.6,5.6C27,32.6,21.7,36.2,21.7,36.2z M9,33.5
	c0,0-3.1-9.9-3.1-14c0-1.9,0.2-3.5,0.5-5h14.1c0.3,1.5,0.5,3.1,0.5,5c0,4.1-3.1,14-3.1,14H9z M14.1,16.8c-2-0.4-3.8,1.4-3.4,3.4
	c0.2,1.1,1.1,2,2.3,2.3c2,0.4,3.8-1.4,3.4-3.4C16.1,17.9,15.2,17,14.1,16.8z M12.9,3.9V0H14v3.8c1.3,0.9,4.7,3.9,6.3,9.6H6.7
	C8.2,7.9,11.5,4.9,12.9,3.9z M5.3,36.2c0,0-5.3-3.6-5.3-11.4c0-4.6,4.6-5.6,4.6-5.6s0.3,5.7,2.6,12C4.9,34,5.3,36.2,5.3,36.2z
	 M15.4,37.4l-0.9-1.5l-1,3.1l-1.2-3.1l-0.8,1.6l-1.2-2.9h6.4L15.4,37.4z"/>
</svg>
